<svg width="3782" height="1065" viewBox="0 0 3782 1065" fill="none" xmlns="http://www.w3.org/2000/svg">
<rect width="3782" height="1064.4" fill="black" fill-opacity="0"/>
<path d="M474.6 588.6C474.6 588.6 523.6 222.1 0 0H439.4C439.4 0 709.1 226.5 696.1 588.6H474.6Z" fill="black"/>
<path d="M160.6 390.2V1064.4L436.8 887.8L160.6 390.2Z" fill="black"/>
<rect width="437.77" height="1064" fill="black" fill-opacity="0" transform="translate(825)"/>
<path d="M1196.99 1063.85L1037.15 572.292H884.776V1063.85H825V0H1013.26C1117.87 0 1228.49 28.4241 1228.49 286.879C1228.49 463.137 1177.65 537.861 1093.99 563.354L1262.77 1064H1196.99V1063.85ZM1017.66 53.7714H884.629V519.986H1017.66C1129.74 519.986 1168.56 442.332 1168.56 286.879C1168.56 131.425 1129.74 53.7714 1017.66 53.7714Z" fill="black"/>
<rect width="679.95" height="1063.85" fill="black" fill-opacity="0" transform="translate(1373.24)"/>
<path d="M1814.09 1063.85L1749.77 744.009H1501.73L1439.02 1063.85H1373.24L1601.79 0H1655.56L1879.72 1063.85H1814.09ZM1625.82 122.487L1513.74 690.384H1739.37L1625.82 122.487Z" fill="black"/>
<path d="M1993.41 1063.85V0H2053.19V1063.85H1993.41Z" fill="black"/>
<rect width="414.036" height="1064" fill="black" fill-opacity="0" transform="translate(2268.26)"/>
<path d="M2609.05 1013.16C2576.23 1045.98 2526.85 1064 2468.54 1064H2268.26V0H2468.54C2526.85 0 2576.08 17.875 2609.05 50.8411C2671.75 115.162 2682.3 168.933 2682.3 532C2682.3 895.067 2671.75 948.838 2609.05 1013.16ZM2564.21 88.2027C2541.8 65.7857 2507.37 53.7714 2464.15 53.7714H2328.19V1010.08H2464.15C2507.51 1010.08 2541.8 998.068 2564.21 975.651C2615.05 924.81 2622.52 878.511 2622.52 531.853C2622.52 185.196 2614.91 138.897 2564.21 88.2027Z" fill="black"/>
<rect width="343.711" height="1063.85" fill="black" fill-opacity="0" transform="translate(2846.54)"/>
<path d="M2846.54 1063.85V0H3190.25V53.7714H2906.31V505.041H3151.42V558.812H2906.31V1010.08H3190.25V1063.85H2846.54V1063.85Z" fill="black"/>
<rect width="439.382" height="1063.85" fill="black" fill-opacity="0" transform="translate(3342.62)"/>
<path d="M3716.22 1063.85L3402.39 164.245V1063.85H3342.62V0H3408.4L3722.22 899.609V0H3782V1063.85H3716.22V1063.85Z" fill="black"/>
</svg>
